{
  "asset": {
    "version": "2.0",
    "generator": "THREE.GLTFExporter r169"
  },
  "scenes": [
    {
      "name": "Scene",
      "nodes": [
        1
      ]
    }
  ],
  "scene": 0,
  "nodes": [
    {
      "name": "Mesh_0",
      "extras": {
        "name": "Mesh_0"
      },
      "mesh": 0
    },
    {
      "name": "red_Vietnamese_Tuong__1022010856.glb",
      "children": [
        0
      ]
    }
  ],
  "bufferViews": [
    {
      "buffer": 0,
      "byteOffset": 0,
      "byteLength": 392148,
      "target": 34962,
      "byteStride": 12
    },
    {
      "buffer": 0,
      "byteOffset": 392148,
      "byteLength": 392148,
      "target": 34962,
      "byteStride": 12
    },
    {
      "buffer": 0,
      "byteOffset": 784296,
      "byteLength": 261432,
      "target": 34962,
      "byteStride": 8
    },
    {
      "buffer": 0,
      "byteOffset": 1045728,
      "byteLength": 329388,
      "target": 34963
    }
  ],
  "buffers": [
    {
      "byteLength": 1375116,
      "uri": "data:application/octet-stream;base64,"
    }
  ],
  "accessors": [
    {
      "bufferView": 0,
      "componentType": 5126,
      "count": 32679,
      "max": [
        0.6104769706726074,
        0.9945629835128784,
        0.305664986371994
      ],
      "min": [
        -0.6101400256156921,
        -1.0012270212173462,
        -0.31550100445747375
      ],
      "type": "VEC3"
    },
    {
      "bufferView": 1,
      "componentType": 5126,
      "count": 32679,
      "max": [
        0.9998356103897095,
        0.9988728761672974,
        0.9999971389770508
      ],
      "min": [
        -0.9999942779541016,
        -0.9998378753662109,
        -0.9999979734420776
      ],
      "type": "VEC3"
    },
    {
      "bufferView": 2,
      "componentType": 5126,
      "count": 32679,
      "max": [
        0.9931640625,
        0.99951171875
      ],
      "min": [
        0.0006089210510253906,
        0.0006089210510253906
      ],
      "type": "VEC2"
    },
    {
      "bufferView": 3,
      "componentType": 5123,
      "count": 164694,
      "max": [
        32678
      ],
      "min": [
        0
      ],
      "type": "SCALAR"
    }
  ],
  "materials": [
    {
      "pbrMetallicRoughness": {
        "metallicFactor": 0,
        "roughnessFactor": 0.800000011920929,
        "baseColorTexture": {
          "index": 0,
          "texCoord": 0
        }
      },
      "doubleSided": true,
      "name": "Material_0"
    }
  ],
  "textures": [
    {
      "sampler": 0,
      "source": 0,
      "name": "Image_0"
    }
  ],
  "samplers": [
    {
      "magFilter": 9729,
      "minFilter": 9987,
      "wrapS": 10497,
      "wrapT": 10497
    }
  ],
  "images": [
    {
      "mimeType": "image/jpeg",
      "uri": "data:image/jpeg;base64,"
    }
  ],
  "meshes": [
    {
      "primitives": [
        {
          "mode": 4,
          "attributes": {
            "POSITION": 0,
            "NORMAL": 1,
            "TEXCOORD_0": 2
          },
          "indices": 3,
          "material": 0
        }
      ]
    }
  ]
}